<svg width="23.000000" height="23.000000" viewBox="0 0 23 23" fill="none" xmlns="http://www.w3.org/2000/svg" xmlns:xlink="http://www.w3.org/1999/xlink">
	<desc>
			Created with Pixso.
	</desc>
	<defs/>
	<path id="github" d="M11 -0.28C7.9 -0.31 4.92 0.89 2.71 3.06C0.49 5.22 -0.77 8.18 -0.8 11.28C-0.79 13.72 0 16.1 1.45 18.07C2.89 20.04 4.93 21.51 7.26 22.25C7.85 22.35 8.07 22 8.07 21.69C8.07 21.38 8.07 20.69 8.07 19.73C4.79 20.42 4.09 18.18 4.09 18.18C3.87 17.48 3.4 16.88 2.78 16.49C1.71 15.78 2.87 15.79 2.87 15.79C3.24 15.84 3.59 15.97 3.9 16.18C4.21 16.39 4.48 16.66 4.67 16.98C5 17.56 5.55 17.98 6.19 18.16C6.83 18.34 7.52 18.26 8.1 17.94C8.16 17.35 8.43 16.8 8.85 16.39C6.23 16.1 3.49 15.11 3.49 10.69C3.46 9.53 3.89 8.41 4.68 7.56C4.32 6.57 4.36 5.48 4.8 4.52C4.8 4.52 5.79 4.21 8.01 5.7C9.95 5.18 11.98 5.18 13.91 5.7C16.16 4.21 17.13 4.52 17.13 4.52C17.56 5.48 17.61 6.57 17.25 7.56C18.05 8.39 18.5 9.51 18.5 10.66C18.5 15.1 15.74 16.08 13.14 16.37C13.42 16.65 13.64 16.98 13.78 17.35C13.92 17.72 13.98 18.12 13.94 18.51L13.94 21.68C13.94 21.68 14.16 22.35 14.75 22.24C17.07 21.49 19.1 20.03 20.55 18.06C21.99 16.09 22.78 13.72 22.79 11.28C22.76 8.18 21.5 5.22 19.28 3.06C17.07 0.89 14.09 -0.31 11 -0.28Z" fill="#FFFFFF" fill-opacity="1.000000" fill-rule="nonzero"/>
</svg>
