<svg width="26.000000" height="15.000000" viewBox="0 0 26 15" fill="none" xmlns="http://www.w3.org/2000/svg" xmlns:xlink="http://www.w3.org/1999/xlink">
	<desc>
			Created with Pixso.
	</desc>
	<defs/>
	<path id="vk" d="M24.93 0.51C25.11 -0.07 24.93 -0.5 24.08 -0.5L21.27 -0.5C20.55 -0.5 20.22 -0.13 20.04 0.28C20.04 0.28 18.61 3.7 16.58 5.93C15.93 6.57 15.63 6.78 15.27 6.78C15.09 6.78 14.83 6.57 14.83 5.98L14.83 0.51C14.83 -0.19 14.63 -0.5 14.03 -0.5L9.61 -0.5C9.16 -0.5 8.89 -0.18 8.89 0.13C8.89 0.8 9.91 0.95 10.01 2.82L10.01 6.89C10.01 7.78 9.85 7.95 9.49 7.95C8.54 7.95 6.22 4.51 4.84 0.57C4.57 -0.2 4.3 -0.5 3.58 -0.5L0.77 -0.5C-0.03 -0.5 -0.2 -0.13 -0.2 0.28C-0.2 1.01 0.76 4.64 4.25 9.44C6.57 12.72 9.85 14.5 12.83 14.5C14.61 14.5 14.83 14.1 14.83 13.42L14.83 10.94C14.83 10.15 15 10 15.57 10C15.99 10 16.7 10.2 18.37 11.78C20.28 13.65 20.59 14.5 21.67 14.5L24.48 14.5C25.28 14.5 25.69 14.1 25.45 13.32C25.2 12.54 24.29 11.42 23.08 10.08C22.43 9.32 21.44 8.5 21.14 8.09C20.73 7.57 20.85 7.33 21.14 6.86C21.14 6.86 24.57 2.12 24.93 0.51Z" fill="#FFFFFF" fill-opacity="1.000000" fill-rule="evenodd"/>
</svg>
