<svg width="25.000000" height="25.000000" viewBox="0 0 25 25" fill="none" xmlns="http://www.w3.org/2000/svg" xmlns:xlink="http://www.w3.org/1999/xlink">
	<desc>
			Created with Pixso.
	</desc>
	<defs/>
	<path id="whatsapp" d="M21.14 3.13C18.8 0.79 15.69 -0.5 12.38 -0.5C5.55 -0.5 -0.01 5.05 -0.01 11.88C-0.01 14.07 0.56 16.2 1.64 18.08L-0.11 24.5L6.46 22.77C8.27 23.76 10.3 24.28 12.38 24.28L12.38 24.28C19.21 24.28 24.77 18.72 24.77 11.89C24.77 8.58 23.48 5.47 21.14 3.13ZM12.38 22.19L12.38 22.19C10.53 22.19 8.72 21.69 7.14 20.75L6.76 20.53L2.86 21.55L3.9 17.75L3.66 17.36C2.63 15.72 2.08 13.83 2.08 11.88C2.09 6.21 6.7 1.59 12.38 1.59C15.14 1.59 17.72 2.66 19.66 4.61C21.61 6.55 22.68 9.14 22.68 11.89C22.67 17.57 18.06 22.19 12.38 22.19ZM18.03 14.48C17.72 14.32 16.2 13.57 15.91 13.47C15.63 13.37 15.43 13.31 15.22 13.62C15.01 13.93 14.42 14.63 14.24 14.84C14.06 15.04 13.88 15.07 13.57 14.91C13.26 14.76 12.26 14.43 11.08 13.38C10.16 12.56 9.54 11.54 9.35 11.23C9.17 10.92 9.34 10.76 9.49 10.6C9.63 10.46 9.8 10.24 9.95 10.06C10.11 9.88 10.16 9.75 10.26 9.54C10.37 9.34 10.32 9.15 10.24 9C10.16 8.84 9.54 7.32 9.28 6.7C9.03 6.1 8.78 6.18 8.59 6.17C8.41 6.16 8.2 6.16 8 6.16C7.79 6.16 7.45 6.24 7.17 6.55C6.88 6.86 6.09 7.61 6.09 9.13C6.09 10.65 7.19 12.13 7.35 12.33C7.5 12.54 9.53 15.67 12.64 17.01C13.38 17.33 13.95 17.52 14.4 17.66C15.14 17.9 15.82 17.86 16.35 17.78C16.95 17.69 18.18 17.03 18.44 16.31C18.7 15.59 18.7 14.97 18.62 14.84C18.55 14.71 18.34 14.63 18.03 14.48Z" fill="#FFFFFF" fill-opacity="1.000000" fill-rule="evenodd"/>
</svg>
